<?xml version="1.0" standalone="no"?>
<!DOCTYPE svg PUBLIC "-//W3C//DTD SVG 20010904//EN"
 "http://www.w3.org/TR/2001/REC-SVG-20010904/DTD/svg10.dtd">
<svg version="1.0" xmlns="http://www.w3.org/2000/svg"
 width="1000.000000pt" height="1000.000000pt" viewBox="0 0 1000.000000 1000.000000"
 preserveAspectRatio="xMidYMid meet">
<metadata>
Created by potrace 1.11, written by Peter Selinger 2001-2013
</metadata>
<g transform="translate(0.000000,1000.000000) scale(0.100000,-0.100000)"
fill="#000000" stroke="none">
<path d="M8780 8373 c-8 -2 -25 -9 -37 -15 -20 -10 -38 -9 -146 8 -40 7 -87
-15 -87 -40 0 -11 -27 -16 -117 -20 -207 -11 -218 -12 -241 -24 -12 -7 -50
-15 -85 -17 -34 -3 -97 -7 -139 -10 -142 -10 -173 -13 -233 -25 -102 -19 -196
-31 -285 -35 -47 -2 -107 -11 -135 -19 -27 -9 -63 -16 -78 -16 -16 0 -97 -14
-180 -31 -84 -17 -165 -32 -182 -34 -16 -2 -70 -13 -120 -24 -49 -12 -103 -24
-119 -26 -15 -3 -51 -12 -79 -20 -28 -8 -93 -22 -145 -30 -52 -9 -103 -20
-115 -27 -20 -10 -130 -39 -227 -58 -25 -5 -72 -18 -104 -29 -33 -12 -70 -21
-82 -21 -13 0 -48 -11 -77 -24 -30 -13 -105 -38 -168 -55 -63 -17 -157 -47
-209 -65 -52 -18 -111 -39 -130 -46 -19 -7 -64 -24 -100 -37 -36 -14 -120 -45
-187 -68 l-122 -42 -28 56 c-21 42 -45 68 -98 109 -38 30 -73 62 -77 73 -7 18
-59 49 -108 64 -13 4 -30 13 -37 20 -20 20 -177 74 -250 85 -49 8 -92 8 -160
-1 -95 -12 -159 -9 -266 13 -55 12 -62 11 -97 -10 -23 -13 -56 -22 -79 -22
-47 0 -88 -14 -116 -40 -25 -24 -124 -50 -187 -50 -67 0 -127 -31 -134 -70 -6
-25 -16 -33 -83 -60 -42 -17 -103 -44 -136 -59 -33 -16 -75 -34 -93 -41 -19
-7 -61 -30 -93 -52 -33 -21 -68 -38 -78 -38 -11 0 -47 -21 -81 -47 -34 -27
-79 -60 -99 -76 -20 -15 -55 -36 -78 -47 -24 -12 -54 -36 -69 -55 -14 -19 -45
-47 -69 -63 -102 -68 -208 -167 -273 -258 -20 -29 -54 -74 -75 -100 -52 -66
-147 -218 -174 -280 -93 -207 -133 -367 -133 -534 0 -114 18 -321 30 -335 4
-5 11 -30 15 -54 13 -80 84 -261 135 -344 114 -185 302 -436 364 -485 13 -9
29 -28 36 -41 28 -53 181 -216 391 -416 41 -39 106 -105 144 -146 39 -42 77
-80 85 -85 23 -14 76 -95 114 -174 134 -279 14 -609 -346 -956 -114 -110 -290
-234 -332 -234 -6 0 -19 -9 -30 -19 -18 -16 -140 -71 -159 -71 -3 0 -23 -11
-43 -25 -22 -15 -51 -25 -71 -25 -19 0 -44 -5 -56 -12 -12 -6 -35 -13 -52 -15
-16 -2 -72 -10 -124 -18 -88 -15 -94 -14 -107 2 -7 10 -14 28 -14 41 0 18 -11
28 -46 43 -55 25 -71 16 -81 -43 l-6 -40 -66 6 c-36 3 -76 6 -88 6 -12 0 -25
5 -28 10 -3 6 -22 10 -42 10 -19 0 -47 9 -63 20 -15 11 -30 17 -33 13 -4 -3
-13 -1 -20 5 -10 9 -18 8 -33 -3 -13 -9 -31 -12 -53 -8 -38 6 -128 51 -168 83
-14 11 -32 20 -40 20 -7 0 -37 14 -66 30 -30 17 -61 30 -71 30 -9 0 -21 11
-26 24 -5 13 -18 27 -30 31 -11 3 -18 10 -15 15 6 10 -19 20 -48 20 -11 0 -28
7 -37 15 -13 12 -23 13 -42 6 -23 -9 -34 -1 -132 94 -105 101 -145 129 -204
141 l-30 6 9 -42 c11 -50 26 -80 39 -80 6 0 10 -11 10 -24 0 -16 9 -27 27 -35
16 -7 48 -30 72 -51 36 -31 42 -41 33 -53 -10 -11 -9 -17 2 -26 8 -7 12 -19
10 -26 -3 -8 4 -22 16 -32 13 -10 26 -22 31 -28 58 -71 86 -96 129 -114 42
-18 49 -25 49 -49 0 -55 9 -72 77 -142 67 -70 128 -109 170 -110 23 0 57 -60
48 -84 -8 -21 -109 36 -205 115 -44 37 -100 74 -124 83 -25 10 -47 26 -50 37
-4 10 -10 19 -14 19 -5 0 -25 16 -45 35 -21 19 -44 35 -53 35 -8 0 -13 6 -11
13 8 22 42 13 56 -16 13 -26 15 -27 35 -14 11 7 22 18 24 24 6 18 -89 102
-151 133 -33 17 -71 44 -85 60 -14 16 -44 37 -66 46 l-40 16 42 -44 c37 -38
73 -103 73 -130 0 -6 -15 1 -33 14 -17 14 -47 33 -65 42 -18 9 -37 28 -42 42
-10 24 -39 40 -94 51 -25 5 -28 4 -21 -16 5 -17 2 -21 -14 -21 -27 0 -26 -9 2
-51 16 -24 37 -39 70 -50 30 -10 56 -27 69 -45 11 -16 38 -42 59 -59 46 -37
55 -56 34 -71 -15 -11 -15 -15 -1 -42 20 -38 66 -72 99 -72 17 0 28 -7 32 -20
3 -10 35 -45 71 -76 48 -42 62 -60 54 -69 -15 -18 46 -68 74 -61 24 7 131 -35
116 -44 -7 -4 -5 -11 5 -20 12 -10 15 -10 15 5 0 14 3 15 15 5 20 -16 20 -41
0 -34 -10 4 -15 0 -15 -15 0 -15 -7 -21 -22 -22 -19 -1 -19 -2 -5 -6 27 -7 69
6 61 19 -4 6 22 -9 57 -33 74 -50 199 -125 281 -169 61 -32 75 -60 41 -79 -14
-7 -6 -16 48 -50 35 -23 82 -46 103 -52 21 -6 45 -17 53 -25 8 -7 32 -18 55
-25 23 -6 51 -17 62 -24 12 -7 39 -18 61 -24 69 -18 229 -51 260 -54 17 -2 41
-9 55 -17 17 -9 76 -15 178 -18 l152 -5 0 -33 c0 -28 4 -34 21 -34 28 0 87 29
102 50 9 13 32 18 97 23 151 9 244 34 550 146 269 99 627 400 887 747 98 131
135 191 196 316 130 266 175 448 184 743 6 188 -10 343 -41 404 -8 14 -21 55
-31 91 -21 80 -33 108 -97 235 -63 126 -183 306 -259 391 -33 35 -59 69 -59
75 0 6 -26 39 -59 73 -96 100 -168 182 -187 212 -10 16 -70 83 -133 149 -315
327 -338 355 -390 458 -41 83 -48 105 -44 140 12 117 36 165 122 244 38 35 53
42 88 43 49 0 73 8 73 24 0 6 31 28 69 48 60 32 71 35 81 23 21 -25 40 -18 40
15 0 27 3 30 30 30 17 0 30 5 30 10 0 13 27 13 32 -1 2 -7 12 -7 31 0 31 12
27 36 -4 26 -21 -7 -25 5 -7 23 16 16 31 15 22 0 -4 -7 7 2 24 20 39 41 58 42
37 3 -8 -17 -19 -33 -25 -36 -21 -13 -9 -21 26 -17 l36 4 -39 -39 c-22 -22
-47 -42 -56 -46 -19 -7 -57 -65 -57 -86 0 -10 11 -5 30 14 17 16 30 23 30 17
0 -7 10 -12 22 -12 l21 0 -22 -24 c-12 -13 -35 -26 -50 -29 -21 -5 -30 -13
-34 -34 -3 -15 -8 -38 -12 -49 -6 -21 -5 -21 50 -12 34 5 64 16 74 27 9 10 39
27 66 37 28 9 59 25 70 35 11 10 41 27 66 37 26 11 48 25 50 30 5 11 164 102
179 102 5 0 10 -7 10 -15 0 -13 8 -15 38 -10 75 12 132 27 138 36 3 5 13 9 22
9 9 0 28 7 42 14 61 34 159 78 210 95 30 10 79 28 108 40 44 17 52 18 52 6 0
-12 10 -10 49 10 27 13 51 28 53 33 5 14 233 91 313 107 67 13 94 23 305 112
52 22 122 50 155 61 33 11 146 50 250 86 242 85 319 111 430 142 86 25 167 41
135 28 -30 -13 -50 -38 -56 -71 -4 -22 -2 -38 5 -42 13 -8 -60 -193 -78 -199
-12 -4 -54 -133 -117 -357 -26 -93 -53 -188 -61 -210 -14 -39 -22 -66 -92
-330 -35 -133 -78 -279 -91 -310 -5 -11 -18 -60 -29 -110 -30 -130 -41 -172
-62 -243 -10 -34 -19 -75 -19 -91 0 -15 -9 -54 -21 -87 -11 -32 -24 -79 -29
-104 -17 -84 -57 -225 -74 -255 -9 -16 -16 -38 -16 -48 0 -9 -11 -48 -24 -85
-12 -37 -26 -89 -30 -117 -9 -64 -25 -139 -42 -190 -7 -22 -18 -71 -24 -110
-6 -38 -18 -90 -26 -115 -8 -25 -14 -55 -14 -68 0 -13 -7 -37 -16 -53 -15 -31
-23 -63 -45 -189 -6 -36 -17 -87 -24 -115 -41 -152 -75 -298 -75 -318 0 -13
-9 -26 -22 -32 -20 -9 -23 -17 -21 -58 1 -34 -3 -47 -12 -47 -8 0 -19 -16 -24
-36 -6 -20 -17 -44 -26 -54 -24 -26 -35 -137 -28 -265 5 -90 11 -120 35 -172
15 -34 28 -68 28 -74 0 -6 22 -44 49 -83 26 -39 51 -81 55 -93 4 -12 25 -36
46 -53 43 -34 123 -141 146 -195 7 -19 24 -40 36 -46 13 -7 36 -23 51 -35 16
-13 36 -24 45 -24 9 0 30 -7 45 -15 20 -10 66 -15 157 -16 138 -2 136 -2 281
76 58 31 182 153 208 203 10 20 24 63 31 94 8 41 20 67 41 88 37 37 54 82 40
107 -6 12 -6 24 0 34 5 7 7 39 4 69 -4 39 -1 63 10 84 22 41 19 74 -10 100
-21 19 -24 28 -16 48 5 13 14 84 20 158 7 74 14 151 16 170 3 19 7 59 10 88 3
29 11 65 19 80 8 15 17 70 20 122 3 52 13 127 21 165 9 39 20 108 26 155 6 47
14 101 19 120 25 98 30 120 40 175 6 33 18 90 26 127 8 37 23 120 35 185 11
65 28 152 39 193 10 41 26 109 35 150 32 148 63 267 74 288 6 11 11 33 11 47
0 15 9 61 19 103 11 43 22 88 24 102 2 14 6 32 9 40 4 8 13 49 21 90 22 107
41 184 87 355 23 83 56 211 75 285 19 74 46 171 59 215 13 44 31 108 39 143
15 61 15 62 -7 63 -21 0 -21 0 2 11 15 8 22 20 22 38 0 15 7 46 15 70 8 23 18
84 21 136 6 77 10 97 25 105 10 5 24 8 30 7 7 -2 19 9 28 24 13 22 14 33 4 59
-11 27 -9 35 9 60 18 24 20 33 10 54 -6 14 -15 25 -20 25 -13 0 -32 -47 -39
-96 -3 -24 -12 -49 -20 -56 -16 -13 -14 8 13 130 8 35 14 74 14 88 0 13 5 24
10 24 16 0 12 56 -5 70 -8 7 -15 23 -15 35 0 24 -7 23 185 44 39 4 111 15 160
24 123 23 350 48 465 52 52 2 173 8 267 14 101 7 251 9 360 5 180 -6 189 -7
217 -31 16 -13 35 -22 43 -18 37 13 61 16 67 6 4 -6 25 -11 47 -11 21 0 39 -4
39 -9 0 -26 172 -37 240 -16 25 8 78 19 118 25 42 6 85 19 100 30 15 11 50 25
77 32 28 7 55 18 60 24 26 28 105 85 138 99 45 19 117 117 117 161 0 11 5 25
11 31 6 6 13 60 15 120 5 128 -13 207 -65 272 -17 21 -31 43 -31 48 0 13 -120
125 -173 161 -68 48 -109 62 -203 73 -72 8 -98 17 -191 65 -84 44 -123 58
-178 66 -38 5 -104 23 -145 40 -63 26 -79 29 -103 20 -19 -7 -37 -8 -53 -1
-14 5 -26 9 -27 8 -1 0 -9 -3 -17 -6z m-1686 -1249 c20 -8 22 -64 2 -64 -8 0
-16 -5 -18 -11 -3 -8 -9 -6 -20 4 -8 9 -18 14 -22 12 -3 -3 -2 1 4 7 15 18 12
28 -10 28 -11 0 -20 7 -20 15 0 16 52 21 84 9z m-214 -80 c0 -23 -24 -44 -50
-44 -29 0 -30 2 -30 45 l0 45 40 -20 c22 -11 40 -23 40 -26z m130 35 c0 -6 -7
-8 -16 -5 -8 3 -24 1 -34 -4 -16 -8 -18 -8 -14 5 7 17 64 21 64 4z m7 -51 c1
-10 0 -18 -2 -18 -2 0 -9 8 -14 18 -7 14 -6 19 3 19 6 0 13 -9 13 -19z m93 -2
c0 -3 -4 -8 -10 -11 -5 -3 -10 -1 -10 4 0 6 5 11 10 11 6 0 10 -2 10 -4z
m-426 -28 c19 -26 13 -38 -20 -38 -29 0 -42 24 -24 45 17 20 26 19 44 -7z
m296 7 c0 -8 -9 -15 -19 -15 -10 0 -21 7 -25 15 -4 11 1 15 19 15 16 0 25 -6
25 -15z m81 -1 c10 -13 10 -17 -2 -25 -19 -12 -29 -11 -29 3 0 9 -3 9 -11 1
-14 -14 -3 -33 17 -33 8 0 12 -4 9 -10 -3 -5 -15 -10 -26 -10 -24 0 -26 45 -2
72 20 22 27 22 44 2z m103 -70 c3 -9 6 -27 6 -40 0 -19 -5 -24 -24 -24 -26 0
-38 25 -29 60 6 24 38 27 47 4z m-3438 -679 c-8 -51 -16 -49 84 -12 30 11 74
28 97 39 52 22 53 22 53 0 0 -10 7 -27 15 -39 15 -21 12 -23 -82 -74 -54 -29
-110 -60 -125 -71 -14 -10 -28 -18 -30 -18 -2 0 -2 27 0 61 l4 60 -28 -6 c-16
-4 -34 -8 -40 -10 -7 -2 -3 18 9 46 19 43 19 51 7 59 -11 7 -8 10 14 10 28 0
28 -1 22 -45z m-588 3 c-3 -7 -15 -14 -29 -16 -23 -2 -23 -2 -5 13 24 18 39
20 34 3z m267 -98 c3 -5 1 -10 -4 -10 -6 0 -11 5 -11 10 0 6 2 10 4 10 3 0 8
-4 11 -10z m251 -115 c-22 -33 -69 -32 -74 2 -3 19 2 22 40 25 24 2 45 2 47 1
2 -1 -4 -14 -13 -28z m-2956 -3284 c0 -6 14 -23 30 -38 22 -20 29 -34 24 -47
-6 -15 -11 -13 -44 19 -26 25 -36 43 -33 56 5 19 23 27 23 10z m1230 -168 c-1
-5 -7 -19 -15 -33 -10 -18 -14 -20 -15 -8 0 23 11 48 21 48 5 0 9 -3 9 -7z
m-603 -69 c6 -15 -11 -34 -32 -34 -5 0 -16 4 -24 9 -21 14 -5 41 24 41 14 0
28 -7 32 -16z m-422 -110 c19 -16 23 -23 12 -20 -10 3 -22 6 -25 6 -4 0 -13 9
-20 20 -17 27 -3 25 33 -6z m65 -34 c8 -5 11 -10 5 -10 -5 0 -17 5 -25 10 -8
5 -10 10 -5 10 6 0 17 -5 25 -10z m217 -6 c3 -8 12 -13 20 -10 10 4 11 1 4
-13 -13 -23 -47 -33 -59 -17 -5 6 -13 21 -16 34 -6 19 -4 22 19 22 14 0 28 -7
32 -16z m-67 -215 c0 -11 -3 -11 -34 1 -37 14 -33 32 4 19 17 -6 30 -15 30
-20z m-214 -44 c10 -8 15 -14 9 -14 -5 0 -19 6 -29 14 -11 8 -15 15 -10 15 6
0 19 -7 30 -15z m177 -19 c-9 -5 -26 -3 -42 5 l-26 12 30 6 c35 8 62 -9 38
-23z m77 -116 c8 -15 6 -17 -9 -13 -11 3 -30 16 -42 29 l-23 24 32 -11 c18 -6
37 -19 42 -29z m175 -82 c21 -9 35 -28 21 -28 -16 0 -56 21 -56 30 0 13 3 13
35 -2z m-17 -80 c-11 -5 -29 -3 -41 4 -21 12 -21 12 8 18 36 7 63 -11 33 -22z
m83 -120 c21 -39 3 -38 -36 2 l-40 41 33 -12 c18 -6 37 -20 43 -31z"/>
<path d="M4000 6050 c0 -18 49 -35 62 -22 9 9 6 12 -15 12 -15 0 -27 5 -27 10
0 6 -4 10 -10 10 -5 0 -10 -5 -10 -10z"/>
<path d="M4062 5980 c0 -14 2 -19 5 -12 2 6 2 18 0 25 -3 6 -5 1 -5 -13z"/>
<path d="M3100 5864 c-56 -55 -48 -67 35 -54 85 14 127 68 69 90 -41 16 -57
11 -104 -36z"/>
<path d="M3488 5739 c-60 -51 -64 -74 -10 -65 20 3 47 6 60 6 25 0 72 41 72
63 0 14 -40 37 -63 37 -7 -1 -33 -19 -59 -41z"/>
<path d="M1390 2709 c13 -23 67 -59 90 -59 8 0 22 5 30 10 12 8 10 14 -15 40
-23 24 -37 30 -72 30 -41 0 -43 -1 -33 -21z"/>
<path d="M0 2648 c0 -36 4 -48 15 -48 20 0 20 50 0 76 -13 18 -14 15 -15 -28z"/>
<path d="M60 2488 c0 -7 4 -18 8 -24 9 -15 67 -44 87 -44 17 0 20 -11 5 -26
-16 -16 -2 -41 35 -58 47 -23 75 -21 75 5 0 42 -29 79 -64 79 -10 0 -41 18
-68 40 -51 41 -78 50 -78 28z"/>
<path d="M969 1843 c-1 -5 0 -23 1 -40 1 -28 -2 -33 -21 -33 -12 0 -20 -3 -16
-6 3 -4 22 -4 40 0 45 8 56 48 21 71 -13 9 -24 12 -25 8z"/>
</g>
</svg>
